<?xml version="1.0" encoding="utf-8"?>
<!-- Generator: Adobe Illustrator 22.0.1, SVG Export Plug-In . SVG Version: 6.00 Build 0)  -->
<svg version="1.1" id="Layer_1" xmlns="http://www.w3.org/2000/svg" xmlns:xlink="http://www.w3.org/1999/xlink" x="0px" y="0px"
	 viewBox="0 0 264.9 70.8" style="enable-background:new 0 0 264.9 70.8;" xml:space="preserve">
<style type="text/css">
	.st0{fill:#FFFFFF;}
	.st1{enable-background:new    ;}
</style>
<title>Artboard 1</title>
<polygon class="st0" points="13.4,47.6 13.4,47.6 13.4,47.6 0,39.9 0,55.3 13.4,63.1 13.4,63.1 26.8,70.8 26.8,55.3 "/>
<polygon class="st0" points="13.4,15.6 0,23.3 0,38.8 0,38.8 13.4,46.5 13.4,31 26.8,23.3 26.8,7.9 "/>
<polygon class="st0" points="41.2,47.6 27.9,55.3 27.9,70.8 41.2,63.1 41.2,63.1 54.6,55.3 54.6,55.3 54.6,39.9 "/>
<polygon class="st0" points="41.5,0 41.5,15.4 41.5,30.9 41.5,46.3 54.9,38.6 54.9,23.2 54.9,23.2 54.9,7.7 54.9,7.7 "/>
<g class="st1">
	<path class="st0" d="M94.6,53.2c-1,0.3-2.3,0.6-3.9,0.9c-1.6,0.3-3.2,0.4-5,0.4c-1.8,0-3.4-0.3-4.8-0.8c-1.4-0.5-2.6-1.3-3.6-2.4
		c-1-1-1.8-2.3-2.3-3.7c-0.5-1.5-0.8-3.1-0.8-4.9c0-1.8,0.2-3.4,0.7-4.9c0.4-1.5,1.1-2.7,2-3.7s1.9-1.8,3.2-2.4
		c1.2-0.6,2.7-0.8,4.3-0.8c1.1,0,2.1,0.1,2.9,0.4c0.8,0.3,1.6,0.5,2.2,0.9V21.2l5.2-0.9V53.2z M79.6,42.6c0,2.3,0.5,4.1,1.6,5.4
		c1.1,1.3,2.6,2,4.5,2c0.8,0,1.5,0,2.1-0.1c0.6-0.1,1.1-0.2,1.4-0.2v-13c-0.5-0.3-1.1-0.6-1.8-0.9c-0.8-0.3-1.6-0.4-2.4-0.4
		c-1.9,0-3.3,0.6-4.2,1.9C80,38.6,79.6,40.3,79.6,42.6z"/>
	<path class="st0" d="M109.4,38.2l4.8-6.9h5.5l-7.6,10.8c1.6,2,3.1,4,4.6,6c1.5,2,2.7,4,3.6,5.7h-5.7c-0.3-0.5-0.6-1.1-1-1.7
		c-0.4-0.6-0.9-1.3-1.3-2c-0.5-0.7-1-1.4-1.5-2c-0.5-0.7-1-1.3-1.5-1.9c-1,1.2-2,2.5-3,3.9c-1,1.4-1.8,2.7-2.4,3.8h-5.3
		c0.4-0.9,1-1.8,1.6-2.7c0.6-1,1.3-1.9,2-2.9c0.7-1,1.4-2,2.2-3c0.8-1,1.5-2,2.2-2.9l-7.7-11.1h5.8L109.4,38.2z"/>
</g>
<g class="st1">
	<path class="st0" d="M137.7,39.7c-0.7,2.5-1.4,5-2.1,7.4c-0.8,2.4-1.5,4.7-2.3,6.8H129c-0.6-1.3-1.2-2.8-1.8-4.5
		c-0.6-1.7-1.3-3.5-1.9-5.5c-0.6-1.9-1.3-4-1.9-6.1c-0.6-2.1-1.3-4.3-1.9-6.5h5.5c0.3,1.2,0.6,2.5,0.9,3.9c0.3,1.4,0.7,2.8,1.1,4.3
		c0.4,1.5,0.8,2.9,1.2,4.3c0.4,1.4,0.8,2.7,1.2,3.8c0.4-1.3,0.9-2.7,1.3-4.1s0.8-2.8,1.2-4.2s0.7-2.8,1.1-4.1
		c0.3-1.3,0.6-2.6,0.9-3.8h4c0.3,1.2,0.5,2.4,0.9,3.8c0.3,1.3,0.7,2.7,1,4.1s0.7,2.8,1.2,4.2s0.8,2.8,1.3,4.1
		c0.4-1.2,0.8-2.4,1.2-3.8c0.4-1.4,0.8-2.8,1.2-4.3s0.8-2.9,1.1-4.3c0.3-1.4,0.7-2.7,0.9-3.9h5.4c-0.6,2.2-1.2,4.4-1.9,6.5
		c-0.6,2.1-1.3,4.2-1.9,6.1c-0.6,1.9-1.3,3.8-1.9,5.5c-0.6,1.7-1.3,3.2-1.9,4.5h-4.3c-0.7-2.1-1.5-4.4-2.3-6.8
		C139,44.7,138.3,42.2,137.7,39.7z"/>
</g>
<g class="st1">
	<path class="st0" d="M171.9,54.4c-1.7,0-3.3-0.3-4.6-0.8c-1.3-0.5-2.4-1.3-3.3-2.4c-0.9-1-1.6-2.2-2-3.7s-0.7-3-0.7-4.7
		c0-1.8,0.2-3.4,0.7-4.8c0.5-1.4,1.2-2.7,2.1-3.7c0.9-1,2-1.8,3.2-2.4c1.3-0.6,2.7-0.8,4.3-0.8c1.2,0,2.3,0.1,3.4,0.3
		c1.1,0.2,1.9,0.5,2.4,0.8l-0.7,2.4c-0.6-0.3-1.2-0.5-1.9-0.7c-0.7-0.2-1.7-0.3-2.9-0.3c-2.5,0-4.4,0.8-5.6,2.4
		c-1.3,1.6-1.9,3.9-1.9,6.8c0,1.3,0.1,2.5,0.4,3.7s0.8,2.1,1.4,2.9c0.6,0.8,1.5,1.4,2.5,1.9c1,0.4,2.3,0.7,3.7,0.7
		c1.2,0,2.2-0.1,3-0.4c0.8-0.3,1.4-0.5,1.8-0.7l0.6,2.4c-0.5,0.3-1.3,0.6-2.4,0.8C174.2,54.3,173.1,54.4,171.9,54.4z"/>
</g>
<g class="st1">
	<path class="st0" d="M189.1,54.4c-0.9-1.8-1.8-3.6-2.7-5.5s-1.7-3.8-2.5-5.8c-0.8-1.9-1.5-3.9-2.1-5.8c-0.6-1.9-1.2-3.9-1.6-5.7h3
		c0.3,1.4,0.7,2.9,1.2,4.5c0.5,1.6,1,3.3,1.7,5s1.3,3.4,2.1,5.2c0.7,1.8,1.6,3.5,2.5,5.3c0.6-1.8,1.2-3.5,1.7-5
		c0.5-1.6,1-3.2,1.4-4.7c0.4-1.6,0.8-3.2,1.2-4.8c0.4-1.6,0.8-3.4,1.2-5.3h2.8c-0.9,4.2-2,8.3-3.2,12.2c-1.2,4-2.5,7.6-3.8,10.8
		c-0.5,1.3-1.1,2.4-1.7,3.4c-0.6,0.9-1.2,1.7-1.9,2.3c-0.7,0.6-1.5,1.1-2.5,1.3c-0.9,0.3-2,0.4-3.3,0.4c-0.7,0-1.4-0.1-2-0.3
		c-0.6-0.2-1-0.3-1.1-0.4l0.6-2.3c0.1,0.1,0.4,0.2,1,0.4c0.5,0.2,1.1,0.2,1.7,0.2c0.8,0,1.5-0.1,2.2-0.3s1.2-0.5,1.8-0.9
		c0.5-0.4,1-1,1.4-1.6C188.3,56.3,188.7,55.4,189.1,54.4z"/>
	<path class="st0" d="M206.3,32.9c0.5-0.4,1.3-0.8,2.4-1.2s2.4-0.6,3.8-0.6c1.6,0,3,0.3,4.3,0.9c1.3,0.6,2.3,1.4,3.2,2.4
		s1.5,2.3,2,3.7c0.4,1.4,0.7,3,0.7,4.7c0,1.8-0.3,3.4-0.8,4.9c-0.5,1.4-1.3,2.7-2.2,3.7c-1,1-2.1,1.8-3.5,2.3
		c-1.3,0.5-2.8,0.8-4.5,0.8c-2,0-3.6-0.1-4.9-0.4c-1.3-0.3-2.4-0.5-3.2-0.8V20.9l2.8-0.5V32.9z M206.3,51.3c0.4,0.1,1.1,0.3,1.9,0.4
		s2,0.2,3.4,0.2c2.4,0,4.4-0.8,5.8-2.4c1.5-1.6,2.2-3.8,2.2-6.8c0-1.2-0.1-2.4-0.4-3.5s-0.7-2.1-1.3-2.9c-0.6-0.8-1.3-1.5-2.3-2
		c-0.9-0.5-2.1-0.7-3.5-0.7c-0.7,0-1.3,0.1-1.9,0.2c-0.6,0.1-1.2,0.3-1.7,0.5c-0.5,0.2-1,0.4-1.4,0.6c-0.4,0.2-0.7,0.4-1,0.6V51.3z"
		/>
	<path class="st0" d="M227.4,42.7c0-2,0.3-3.7,0.8-5.1c0.6-1.5,1.3-2.7,2.2-3.7c0.9-1,1.9-1.7,3.1-2.2s2.4-0.7,3.6-0.7
		c2.7,0,4.9,0.9,6.6,2.7c1.6,1.8,2.4,4.5,2.4,8.3c0,0.2,0,0.5,0,0.7c0,0.2,0,0.4-0.1,0.6h-15.7c0.1,2.7,0.8,4.8,2,6.3
		c1.3,1.5,3.3,2.2,6.1,2.2c1.5,0,2.7-0.1,3.6-0.4c0.9-0.3,1.5-0.5,1.9-0.7l0.5,2.4c-0.4,0.2-1.2,0.5-2.3,0.8s-2.4,0.5-3.9,0.5
		c-2,0-3.6-0.3-5-0.9c-1.4-0.6-2.5-1.4-3.4-2.4c-0.9-1-1.5-2.3-1.9-3.7C227.6,46,227.4,44.4,227.4,42.7z M243.2,41
		c-0.1-2.3-0.6-4.2-1.6-5.5c-1-1.3-2.5-1.9-4.4-1.9c-1,0-1.9,0.2-2.7,0.6c-0.8,0.4-1.5,0.9-2.1,1.6c-0.6,0.7-1.1,1.5-1.4,2.4
		c-0.3,0.9-0.5,1.8-0.6,2.8H243.2z"/>
	<path class="st0" d="M260,31.1c0.9,0,1.8,0.1,2.6,0.2c0.8,0.1,1.4,0.3,1.7,0.4l-0.6,2.4c-0.2-0.1-0.7-0.2-1.4-0.4
		c-0.7-0.1-1.6-0.2-2.8-0.2c-1.2,0-2.2,0.1-2.9,0.3s-1.2,0.3-1.4,0.4v19.6h-2.8V32.6c0.7-0.3,1.7-0.6,3-1
		C256.7,31.3,258.2,31.1,260,31.1z"/>
</g>
</svg>
